<svg id="Camada_1" data-name="Camada 1" xmlns="http://www.w3.org/2000/svg" viewBox="0 0 400 400"><defs><style>.cls-1{fill:#e24212;}</style></defs><title>icones_site</title><path class="cls-1" d="M117,193.51c.12,16.74,4.39,33.09,14.49,46.66,1.55,2.08,5.51,5.1,6.19,7.54s-1.37,7.07-2,9.44c-2.07,8.17-3.87,16.17-3.78,24.63a2.6,2.6,0,0,0,4.39,1.82c4.91-4.7,8.31-10.71,13.25-15.38,8.82-8.34,12.67-4.11,23-1.24,15,4.18,30.29,5.63,45.66,2.52,27.82-5.63,53.09-25.18,61.66-52.81,8.78-28.27-2-59.42-23.35-79.12a82.07,82.07,0,0,0-83-17.23c-31.36,11-55.36,39.43-56.54,73.17-.12,3.31,5,3.31,5.14,0,1.06-30.4,22.22-56.27,50.09-67.22a77.13,77.13,0,0,1,81.66,15.85c21.23,20.22,30.63,52.54,18.45,80-11.66,26.32-39.45,42.3-67.56,43.89a90.43,90.43,0,0,1-26.22-2.84,114.54,114.54,0,0,1-11.94-3.47c-2.36-.85-5.46-3.15-8-3-11.17.44-19,16.6-26,23.26l4.39,1.82c-.1-8.9,2.15-17.22,4.24-25.78.83-3.39,2.4-7.7.83-11.08-1.26-2.72-4.55-5.23-6.36-7.64a65.65,65.65,0,0,1-7.48-12.77c-4.38-9.83-6.09-20.26-6.16-31C122.16,190.2,117,190.19,117,193.51Z"/><path class="cls-1" d="M223.51,168.76a24.59,24.59,0,0,1-4.29,14.43q-1.71,2.43-8.72,9.14-5.43,5-6.72,9.43a40.45,40.45,0,0,0-1.86,11.72,7.51,7.51,0,0,0,.14,1.71l.14,2.57v1q0,3.72-3.14,3.72a5.89,5.89,0,0,1-1.29-.21,6.06,6.06,0,0,0-1.14-.21c-.48,0-1.22.05-2.21.14s-1.79.14-2.36.14q-1.86,0-1.86-12.43a17.75,17.75,0,0,1,.21-2.36,17.29,17.29,0,0,0,.21-2.22q0-8.15,3.86-13.57,2.86-4.14,10.43-9.43,5.29-3.72,6.5-5.36a7.71,7.71,0,0,0,1.21-4.64,16.23,16.23,0,0,0-2.64-8.57,12.23,12.23,0,0,0-6.64-5.57,14.12,14.12,0,0,0-4.14-.57,20,20,0,0,0-11.36,3.5,17.28,17.28,0,0,0-7.07,9.36,5.06,5.06,0,0,1-2,.43,2.56,2.56,0,0,1-1.29-.43q-2.29-2-5.29-4.86a2.18,2.18,0,0,1-.71-1.57q0-8.57,10-15.29,4.86-3.28,13.86-3.29a29.5,29.5,0,0,1,3.86.14,34.58,34.58,0,0,1,16.58,8q6.43,5.43,7.57,11.57A25.88,25.88,0,0,1,223.51,168.76Zm-17.58,69.88q0,6.86-6,6.86t-7.65-1.72q-1.65-1.71-1.93-8,3.14-5.86,6.57-5.86a11.32,11.32,0,0,1,5.43,1.57Q205.94,236.78,205.94,238.63Z"/><path class="cls-1" d="M132.34,207.46a45.88,45.88,0,0,0,16,23.87c2.58,2,6.25-1.61,3.64-3.64a41.37,41.37,0,0,1-14.71-21.6c-.91-3.18-5.87-1.83-5,1.37Z"/><path class="cls-1" d="M252.11,164.65a38.24,38.24,0,0,1,8.12,26.41c-.2,3.31,4.95,3.29,5.14,0a43.61,43.61,0,0,0-9.63-30c-2-2.6-5.67,1.06-3.64,3.64Z"/></svg>