<svg id="Camada_1" data-name="Camada 1" xmlns="http://www.w3.org/2000/svg" viewBox="0 0 400 400"><defs><style>.cls-1{fill:#e24212;}</style></defs><title>icones_site</title><path class="cls-1" d="M252,156.84c-1.08-11.29-2.17-22.6-3.14-33.89-.56-6.55-2.17-13.3-8.73-16.34-9.23-4.29-24.37.83-34,1.87q-15.73,1.71-31.49,3.16l-48.58,4.54c-13.15,1.23-24,3-22.66,19.77,3.29,40.13,9.2,80.2,13.76,120.21,1.06,9.27.8,21,5.5,29.42,5,8.86,12.83,10.19,22.24,9.26,10.82-1.07,21.64-2.25,32.45-3.43Q210.66,287.78,244,284c6-.69,11.83-2,15.87-6.88,8.29-10.07,1.58-29.3.29-40.66-.37-3.25-5.52-3.29-5.14,0,1.12,9.81,8,31.7-.86,39-3.35,2.76-7.42,3.08-11.51,3.55-17.06,2-34.14,3.84-51.21,5.72q-16.28,1.79-32.57,3.53c-7.93.84-21.82,4.67-28.42-.94-7.07-6-6.66-18.3-7.63-26.78Q116.42,204.64,110,148.76c-.6-5.21-1.94-10.91-1.74-16.17.32-8.63,5.41-10.22,12.46-10.77,15.82-1.23,31.63-3,47.43-4.43,17.27-1.61,34.54-3.23,51.75-5.35,5.61-.69,14.1-3.43,19.14-.21,3.94,2.52,4.28,7.2,4.67,11.32,1.06,11.22,2.07,22.46,3.15,33.69.31,3.27,5.46,3.3,5.14,0Z"/><path class="cls-1" d="M129.14,159.88c16.84.7,34.44-2.44,51.08-4.89,3.26-.48,1.88-5.44-1.37-5-16.18,2.39-33.32,5.39-49.72,4.71-3.31-.14-3.3,5,0,5.14Z"/><path class="cls-1" d="M184,184.23c-16.56,2.11-33.66,7.24-50.4,6.51-3.31-.14-3.3,5,0,5.14,16.73.72,33.87-4.41,50.4-6.51,3.24-.41,3.28-5.56,0-5.14Z"/><path class="cls-1" d="M183,167.77c-16.56,2.11-33.66,7.24-50.4,6.51-3.31-.14-3.3,5,0,5.14,16.73.72,33.87-4.41,50.4-6.51,3.24-.41,3.28-5.56,0-5.14Z"/><path class="cls-1" d="M137.16,213.82c16.2-2.64,33-8.31,49.46-8.18,3.31,0,3.31-5.12,0-5.14-16.94-.14-34.19,5.65-50.83,8.36-3.26.53-1.88,5.49,1.37,5Z"/><path class="cls-1" d="M137.37,231.11a411.47,411.47,0,0,1,52.12-5.39c3.3-.1,3.32-5.24,0-5.14-18,.55-35.69,2.76-53.48,5.58-3.26.52-1.88,5.47,1.37,5Z"/><polygon class="cls-1" points="163.53 272.12 156.2 269.83 150.15 274.57 150.07 266.89 143.7 262.6 150.97 260.15 153.08 252.77 157.66 258.93 165.34 258.65 160.89 264.91 163.53 272.12"/><path class="cls-1" d="M163.87,270.88c-2.1-.66-5.82-2.76-8-2.29s-4.87,3.7-6.61,5.07l2.19.91c0-2.2.82-6.38-.26-8.33s-5-3.51-6.83-4.75l-.31,2.35c2.09-.7,6.29-1.18,7.84-2.78s1.83-5.83,2.44-8l-2.35.31c1.32,1.77,3.06,5.61,5,6.62s6.12,0,8.32-.11L164.22,258c-1.26,1.77-4.3,4.57-4.6,6.74s1.91,5.68,2.66,7.72c.56,1.54,3,.88,2.48-.68l-1.32-3.61c-.27-.73-1.25-3.73-1.33-3.1s1.73-2.11,2.11-2.64l2.22-3.13a1.29,1.29,0,0,0-1.11-1.93l-3.84.14a21,21,0,0,0-2.32.08c-.3,0-2.16-.16-.94.33.91.37-1.28-2.08-1.76-2.72l-2.29-3.08a1.31,1.31,0,0,0-2.35.31l-1.05,3.69a22.92,22.92,0,0,0-.64,2.23c-.07.39-.84,1.89,0,1s-.48,0-1,.07c-.74.17-1.48.5-2.2.74l-3.64,1.23a1.3,1.3,0,0,0-.31,2.35l3.19,2.14c.69.46,3.29,2.53,2.82,1.61-.57-1.11-.22.55-.26.94a22.17,22.17,0,0,0,0,2.32l0,3.84a1.3,1.3,0,0,0,2.19.91l3-2.37c.59-.46,1.27-.92,1.82-1.43s1.68-.84.58-.72c-1.32.15.55.45.82.57a20.08,20.08,0,0,0,2.21.69l3.66,1.15C164.77,273.86,165.45,271.38,163.87,270.88Z"/><polygon class="cls-1" points="230.78 263.13 223.45 260.84 217.4 265.58 217.32 257.9 210.94 253.62 218.22 251.16 220.33 243.78 224.91 249.94 232.58 249.66 228.14 255.92 230.78 263.13"/><path class="cls-1" d="M231.12,261.89c-2.1-.66-5.82-2.76-8-2.29s-4.87,3.7-6.61,5.07l2.19.91c0-2.2.82-6.38-.26-8.33s-5-3.51-6.83-4.75l-.31,2.35c2.09-.7,6.29-1.18,7.84-2.78s1.83-5.83,2.44-8l-2.35.31c1.32,1.77,3.06,5.61,5,6.62s6.12,0,8.32-.11L231.47,249c-1.26,1.77-4.3,4.57-4.6,6.74s1.91,5.68,2.66,7.72c.56,1.54,3,.88,2.48-.68l-1.32-3.61c-.27-.73-1.25-3.73-1.33-3.1s1.73-2.11,2.11-2.64l2.22-3.13a1.29,1.29,0,0,0-1.11-1.93l-3.84.14a21,21,0,0,0-2.32.08c-.3,0-2.16-.16-.94.33.91.37-1.28-2.08-1.76-2.72l-2.29-3.08a1.31,1.31,0,0,0-2.35.31L218,247.13a22.92,22.92,0,0,0-.64,2.23c-.07.39-.84,1.89,0,1s-.48,0-1,.07c-.74.17-1.48.5-2.2.74l-3.64,1.23a1.3,1.3,0,0,0-.31,2.35l3.19,2.14c.69.46,3.29,2.53,2.82,1.61-.57-1.11-.22.55-.26.94a22.17,22.17,0,0,0,0,2.32l0,3.84a1.3,1.3,0,0,0,2.19.91l3-2.37c.59-.46,1.27-.92,1.82-1.43s1.68-.84.58-.72c-1.32.15.55.45.82.57a20.08,20.08,0,0,0,2.21.69l3.66,1.15C232,264.87,232.69,262.39,231.12,261.89Z"/><polygon class="cls-1" points="195.53 269.22 189.04 265.12 181.98 268.14 183.88 260.7 178.82 254.92 186.48 254.42 190.42 247.83 193.26 254.96 200.75 256.67 194.84 261.57 195.53 269.22"/><path class="cls-1" d="M196.18,268.11c-1.86-1.18-4.91-4.16-7.14-4.28s-5.68,2.33-7.71,3.2l1.89,1.45c.54-2.14,2.44-6,1.9-8.13s-3.93-4.68-5.39-6.35l-.91,2.19c2.2-.14,6.4.48,8.31-.67s3.27-5.16,4.4-7.06l-2.35-.31c.82,2.05,1.52,6.21,3.17,7.7s5.91,1.55,8.06,2l-.57-2.15c-1.67,1.39-5.33,3.31-6.17,5.32s.39,6,.58,8.14c.15,1.63,2.72,1.65,2.57,0l-.35-3.82c-.07-.78-.25-3.91-.49-3.35s2.22-1.6,2.72-2l3-2.45a1.29,1.29,0,0,0-.57-2.15l-3.74-.85a21,21,0,0,0-2.26-.51c-.29,0-2-.7-1,.07.78.58-.71-2.34-1-3.08l-1.42-3.57a1.3,1.3,0,0,0-2.35-.31l-2,3.3a22.59,22.59,0,0,0-1.19,2c-.16.35-1.3,1.62-.25.94.87-.56-2.53-.07-3.25,0l-3.83.25a1.3,1.3,0,0,0-.91,2.19l2.53,2.89c.54.62,2.54,3.31,2.31,2.28-.27-1.23-.35.46-.49.84a22,22,0,0,0-.57,2.25l-.95,3.72a1.3,1.3,0,0,0,1.89,1.45l3.53-1.51c.69-.3,1.47-.56,2.13-.91s1.83-.38.75-.55c-1.32-.2.42.58.64.76a20,20,0,0,0,2,1.24l3.25,2.05C196.29,271.22,197.58,269,196.18,268.11Z"/><path class="cls-1" d="M194,141.18a50.53,50.53,0,0,1,10.29,13.69,2.6,2.6,0,0,0,4,.52,230.17,230.17,0,0,0,23-23.8c2.11-2.52-1.51-6.18-3.64-3.64a230.17,230.17,0,0,1-23,23.8l4,.52a54.76,54.76,0,0,0-11.09-14.73c-2.4-2.28-6,1.35-3.64,3.64Z"/><path class="cls-1" d="M267.81,198.82l-15.33,16.29h3.64l-16-16c-2.35-2.34-6,1.3-3.64,3.64l16,16a2.6,2.6,0,0,0,3.64,0l15.33-16.29c2.27-2.41-1.36-6.05-3.64-3.64Z"/><path class="cls-1" d="M251.36,177.48l.37,35.33c0,3.31,5.18,3.32,5.14,0l-.37-35.33c0-3.31-5.18-3.32-5.14,0Z"/><path class="cls-1" d="M291.56,204.09c-7,48.27-87.92,32.66-77.31-13.57,4.48-19.51,26.41-34.09,46.18-30.46,20.35,3.74,32.42,25.29,31,44.71-.24,3.3,4.91,3.29,5.14,0,1.62-22.7-13.69-47.18-37.5-50.07-22.61-2.74-46.75,14.37-50.32,37.12-8.13,51.78,80,66.65,87.73,13.63C297,202.22,292,200.82,291.56,204.09Z"/></svg>