<svg id="Camada_1" data-name="Camada 1" xmlns="http://www.w3.org/2000/svg" viewBox="0 0 400 400"><defs><style>.cls-1{fill:#e24212;}</style></defs><title>icones_site</title><path class="cls-1" d="M288.66,179.47q0-23.89,0-47.77c0-5.18.82-9.3-.12-14.11-2.5-12.71-18.72-9.53-28.35-9.55q-57-.14-114-.47c-12.21-.06-24.42-.09-36.62-.18-14.05-.1-24.25,2.4-24.67,18.3C84,159.19,86.08,193,86.78,226.54c.18,8.39-2.32,24,5.76,29.29s22.09,3.24,31.19,3.3c20.15.13,40.3.08,60.45,0,3.31,0,3.32-5.15,0-5.14-25.93.07-52.2,1.2-78.11-.28-9.51-.54-13.49-2.55-13.82-11.67-.15-4.17-.18-8.35-.26-12.52-.67-31.83-1.38-63.66-1.87-95.49-.08-5-1.31-13,1.64-17.21,3.85-5.41,11.66-4.37,17.52-4.32,9.88.08,19.77.1,29.65.15q51.54.25,103.07.45l22.29.07c4.51,0,15.38-1.59,18.37,2.83,2.31,3.42.86,13,.86,16.75q0,23.35,0,46.7c0,3.31,5.14,3.31,5.14,0Z"/><path class="cls-1" d="M116.28,152.86c35.33.79,70.7,2.12,106,.92,3.3-.11,3.32-5.26,0-5.14-35.33,1.2-70.7-.14-106-.92-3.31-.07-3.31,5.07,0,5.14Z"/><path class="cls-1" d="M218.12,171.33c-16.49-1.2-33.72-3.89-50.24-2.3-17.09,1.64-33.28,3.25-50.52,2.52-3.31-.14-3.3,5,0,5.14,17.34.73,33.36-.9,50.52-2.52,16.55-1.56,33.72,1.1,50.24,2.3,3.3.24,3.29-4.9,0-5.14Z"/><path class="cls-1" d="M119.94,199.48q35.51.49,71-1.86c3.29-.22,3.31-5.36,0-5.14q-35.44,2.35-71,1.86c-3.31,0-3.31,5.1,0,5.14Z"/><path class="cls-1" d="M325.09,290.76c1.52-10.52,1.84-25-7.24-32.53-3.84-3.2-8.53-3.35-12.9-5.33-16.34-7.38-3.24-18.13.69-27.76,8.71-21.34-3-48.69-28.13-49.48-12.29-.39-23.26,8-29.8,18-5.68,8.6-1,20.27,3.56,28.47,3.06,5.55,8.85,9.43,11.78,14.68,3.52,6.3,1.07,9.22-3.84,12.58a31,31,0,0,1-14.93,5.37c-9.27.88-18.46-1.57-27-5.08-10.82-4.45-14.27-11-18.26-21.46-3-7.77-11.61-25.39-21.92-25.28-14.17.15-.34,16.2,1.44,20l2.9-3.78c-6.84-1.82-12.21,3.4-9.42,10.26l2.48-3.26c-5.78-.47-8.45,4.51-6.81,9.77,2.69,8.59,11.87,17.41,18.33,23.26,16,14.52,36.28,23.38,57.26,27.9,3.23.69,4.61-4.26,1.37-5-14.25-3.07-28-8-40.45-15.73a100.25,100.25,0,0,1-16.82-13,90.38,90.38,0,0,1-6.4-6.82c.32.38-12.07-15.76-6.48-15.3A2.58,2.58,0,0,0,177,228l3.1-3.93a2.6,2.6,0,0,0,2.9-3.78c-.42-.89-4.51-6.09-4.5-6.16,1.43-8.27,10.63,5.6,11.26,6.6,3.68,5.9,5.09,12.54,8,18.74,5.86,12.41,20.83,17.52,33.57,19.75,12.39,2.16,23.62,0,33.61-7.81,8.26-6.47,8-11.64.7-19.27-6.31-6.58-12.94-14.53-14.44-23.92-1.86-11.62,7.55-23.06,18.66-26.48,23.4-7.2,38.28,19.09,32,38.83-3,9.46-17.25,22.06-7.8,32.35,3,3.32,7.92,4.34,12,5.66,14.34,4.63,16,17.29,14.08,30.82-.47,3.24,4.49,4.64,5,1.37Z"/><path class="cls-1" d="M265.78,200.69c-8.07,4.6-6.09,22.69,4.9,20.16,3.22-.74,1.86-5.7-1.37-5-2.24.51-3.32-2.86-3.46-4.5-.2-2.24.44-5.08,2.53-6.27,2.88-1.64.29-6.08-2.6-4.44Z"/><path class="cls-1" d="M277.27,201.07c3.31,0,3.31-5.14,0-5.14s-3.31,5.14,0,5.14Z"/><path class="cls-1" d="M260.81,198c3.31,0,3.31-5.14,0-5.14s-3.31,5.14,0,5.14Z"/><path class="cls-1" d="M276.35,228.58a10.77,10.77,0,0,0,5.76-4.58c1.74-2.83-2.71-5.41-4.44-2.6a5.27,5.27,0,0,1-2.69,2.22,2.63,2.63,0,0,0-1.8,3.16,2.6,2.6,0,0,0,3.16,1.8Z"/><path class="cls-1" d="M275.27,175.62c-4,1.08-21,2.7-18.4,10.4,2.68,7.86,22.39-1.24,26.92-3.15,2.59-1.09.93-4.61-1.3-4.79-5.54-.45-11.54.65-15,5.28a2.55,2.55,0,0,0,0,2.6c3.93,7.64,16.59,1.46,20.81-2.61l-4.3-2.5c-.75,2.72-1.22,4.95.15,7.5a2.62,2.62,0,0,0,2.9,1.18c2.79-.69,4.85-2.94,6.61-5.08l-4.3-2.5a37.79,37.79,0,0,0-1.65,8.86,2.59,2.59,0,0,0,3.87,2.22,41.13,41.13,0,0,0,6.32-4.85l-4-3.12c-5,10.57,4.2,18.64,11.43,7.93,1.37-2-.88-4.16-2.9-3.78-3.3.62-10.32,1.73-8,7.09,1.62,3.83,5.66,2.7,8.09.58s-1.15-5.8-3.64-3.64c-2.75,2.4,5.87.75,5,.92l-2.9-3.78-2.55-2.74a2.58,2.58,0,0,0-4-3.12,22.48,22.48,0,0,1-5.28,4l3.87,2.22a22.3,22.3,0,0,1,1.47-7.49c.74-2.35-2.64-4.51-4.3-2.5a11.13,11.13,0,0,1-4.34,3.75l2.9,1.18.36-3.54a2.59,2.59,0,0,0-4.3-2.5c-2.48,2.39-4.92,2.74-7.86,4q-2.59,0,1.11-.38a9.81,9.81,0,0,1,4.62-.13l-1.3-4.79c-.89.38-18,6.7-18.39,6.13.4.56,12.53-3.62,13.84-4,3.19-.87,1.84-5.83-1.37-5Z"/><path class="cls-1" d="M267.66,182.77c11.72-3.66,34.55-5.45,40.21,9,4.54,11.57,2.42,24.31-7.9,31.61l3.78,2.9c3.17-12.9,7.08-36.32-6.39-44.69l-1.3,4.79c10,.14,7.73,15.4,10.14,22,1,2.6,5.09,2.38,5.05-.68a77.31,77.31,0,0,0-2-16.63l-5,1.37a34,34,0,0,1-.08,22.49c-1.07,3.14,3.9,4.49,5,1.37a38.05,38.05,0,0,0,.08-25.23,2.57,2.57,0,0,0-5,1.37,71.15,71.15,0,0,1,1.8,15.26l5.05-.68c-3.49-9.49-.82-25.54-15.1-25.74-2.61,0-3.42,3.47-1.3,4.79,10.55,6.56,6.45,29,4,38.89-.49,2,1.85,4.27,3.78,2.9,13.12-9.27,15.8-25.21,9.41-39.81-6.85-15.63-32.42-14.32-45.68-10.18-3.15,1-1.8,5.95,1.37,5Z"/><path class="cls-1" d="M174.4,214.94c-18.87-.47-38.21-2.12-57-.19-3.26.33-3.29,5.48,0,5.14,18.82-1.93,38.16-.28,57,.19,3.31.08,3.31-5.06,0-5.14Z"/><path class="cls-1" d="M196,262.44a1051.82,1051.82,0,0,1-119.37-1l2.22,3.87a18,18,0,0,1,13.44-9.66c3.25-.6,1.87-5.56-1.37-5a22.56,22.56,0,0,0-16.51,12,2.6,2.6,0,0,0,2.22,3.87,1051.82,1051.82,0,0,0,119.37,1c3.29-.16,3.31-5.3,0-5.14Z"/><path class="cls-1" d="M265,250.42a73.78,73.78,0,0,1,11.35,8.37c1.39,1.25,2.68,3,4.67,3.22,2.34.3,4.9-1.62,6.71-2.79,3.43-2.22,6.5-4.63,10.26-6.29,3-1.33.41-5.76-2.6-4.44-3.73,1.64-11.24,8.8-14.65,7.39-2-.81-4.14-3.68-5.88-5a80,80,0,0,0-7.28-4.9c-2.84-1.72-5.43,2.73-2.6,4.44Z"/><path class="cls-1" d="M300.2,254.42q-8.87,6.66-17.63,13.45l4.3,1.13a43.41,43.41,0,0,1-1.49-8.8c-.21-3.29-5.35-3.31-5.14,0a50.25,50.25,0,0,0,1.67,10.16c.56,2,2.83,2.27,4.3,1.13q8.25-6.39,16.59-12.65c2.61-2,.05-6.43-2.6-4.44Z"/><path class="cls-1" d="M279.08,257.7,270.42,262l3.12.4a94.77,94.77,0,0,0-13.45-10.69c-2.77-1.82-5.35,2.63-2.6,4.44a87.39,87.39,0,0,1,12.41,9.89,2.66,2.66,0,0,0,3.12.4l8.66-4.34c3-1.49.36-5.92-2.6-4.44Z"/></svg>