<svg id="Camada_1" data-name="Camada 1" xmlns="http://www.w3.org/2000/svg" viewBox="0 0 400 400"><defs><style>.cls-1{fill:#e24301;}</style></defs><title>icones_site</title><path class="cls-1" d="M197,98.75l-70.31-3.3c-7.17-.34-16.11-2.07-22.89,1-11.33,5.1-12,17.81-12.73,28.6-2.22,30.86-3.4,61.82-4.73,92.73-.69,16.11-1.08,33.39,18.32,38.67,10.79,2.94,23.63,1.83,34.75,2.31q24.26,1,48.52,2.24,42.85,2.06,85.7,4.26c8,.41,17,1.43,24.51-1.85,10.86-4.77,10-17.4,10.64-27.43,1.8-30.53,3-61.09,4.27-91.64.3-7.2,1.2-14.69.81-21.91-.83-15.36-12.06-19.28-25.51-20.12-30.4-1.91-60.9-2.66-91.35-3.54-3.31-.1-3.31,5,0,5.14,23.59.68,47.17,1.45,70.75,2.49,11.2.49,34.56-2.39,39.66,9.94,2.07,5,1.2,10.94,1,16.23q-1.63,39.79-3.51,79.56c-.53,10.93-.9,21.91-1.83,32.82-1.28,15-12.52,15.81-25,15.38-50.08-1.69-100.12-5.22-150.19-7.21-12.19-.48-28.46,1.16-34.78-11.75-2.32-4.73-2.15-9.67-1.93-14.73,1.12-25.74,2.23-51.47,3.62-77.2.4-7.35.81-14.71,1.32-22.05.46-6.65.11-15,3.74-20.81,5.75-9.18,17.79-6.42,26.9-6L197,103.9C200.28,104.05,200.27,98.91,197,98.75Z"/><path class="cls-1" d="M102.49,113.51l-5,113a2.61,2.61,0,0,0,2.57,2.57L267.73,236l24,1a2.61,2.61,0,0,0,2.57-2.57l3-114.67a2.61,2.61,0,0,0-2.57-2.57l-165.59-5.47-24.1-.8c-3.31-.11-3.31,5,0,5.14l165.59,5.47,24.1.8-2.57-2.57-3,114.67,2.57-2.57L124.13,225l-24-1,2.57,2.57,5-113C107.77,110.2,102.63,110.2,102.49,113.51Z"/><path class="cls-1" d="M194.11,239.48c-2,.34-4.3,1.29-5.39,3.05-1.92,3.1,1.14,7,4,8.25,3,1.3,6.59,0,7.35-3.35.95-4.17-1.29-7.66-5.59-8-1.65-.13-1.64,2.44,0,2.57a3.65,3.65,0,0,1,2.93,5.39c-1.05,2.17-3.84,1.31-5.18,0s-2.2-3.2-.25-4.4a8.24,8.24,0,0,1,2.85-1C196.42,241.67,195.73,239.2,194.11,239.48Z"/><path class="cls-1" d="M180.28,258.74l-1.15,26.2,2.57-2.57-30-.22c-5.48,0-14.45-1.65-19.22,2.13-8,6.37-1.38,15,6.46,16.28,4.94.8,10.36.43,15.35.64l73.26,3c7.58.32,34.92,5.53,32.92-9.95-1-8.05-12.86-7.52-19-8l-32.79-2.5,2.57,2.57.9-26.47c.11-3.31-5-3.31-5.14,0l-.9,26.47a2.62,2.62,0,0,0,2.57,2.57c13.15,1,26.73,1.07,39.76,3,1.39.21,5.19.43,5.94,1.58,2.1,3.25-2.92,5.87-5.08,6.43a12.19,12.19,0,0,1-2.81-.11c-6-.06-12.09-.5-18.12-.75l-58.09-2.41-23.16-1c-2.37-.1-9.5.56-10.76-1.25-1.6-2.29,1.55-6.59,3.3-7.31.68-.28,2.07,0,2.81,0,4.7-.07,9.41.07,14.1.1l25.16.18a2.62,2.62,0,0,0,2.57-2.57l1.15-26.2c.15-3.31-5-3.3-5.14,0Z"/><path class="cls-1" d="M182.5,269.28l26.71,1.43c3.31.18,3.3-5,0-5.14l-26.71-1.43c-3.31-.18-3.3,5,0,5.14Z"/><path class="cls-1" d="M193,243.8l-.1,2.31c-.07,1.65,2.5,1.65,2.57,0l.1-2.31c.07-1.65-2.5-1.65-2.57,0Z"/><path class="cls-1" d="M195.34,111.55l6.42.28c3.31.15,3.3-5,0-5.14l-6.42-.28c-3.31-.15-3.3,5,0,5.14Z"/></svg>