<svg id="Camada_1" data-name="Camada 1" xmlns="http://www.w3.org/2000/svg" viewBox="0 0 400 400"><defs><style>.cls-1{fill:#e24301;}</style></defs><title>icones_site</title><path class="cls-1" d="M108.31,224.54,104.18,141c-.39-7.92-1.22-16.42-1.26-23.94-.05-9.39,3.8-15.74,13.77-16.44,5.24-.36,10.54-.3,15.78-.41,35.81-.77,71.63-1.21,107.44-1.69,11.71-.16,23.43-.48,35.14-.45,2.77,0,5.53-.21,8.1,1.13,7.15,3.72,6.41,13.52,6.62,20.46,1,33.66.49,67.42.14,101.09,0,3.31,5.11,3.31,5.14,0,.34-32.41.72-64.87,0-97.27-.28-12,.27-28.58-15.28-30.47-7.48-.91-15.52.06-23,.15-38.79.5-77.59,1-116.38,1.75-9.75.19-27.28-2.47-35.58,3.92-8.5,6.53-6.92,18.35-6.52,26.43l4.9,99.26c.16,3.29,5.31,3.31,5.14,0Z"/><path class="cls-1" d="M198.08,220.39c-17.27.65-34.56,1-51.84,1.48-13.53.35-28.57-1.13-42,1.07-10,1.64-14.93,14.62-4.12,19,7,2.83,16.7,1.43,24.14,1.42,8.47,0,16.95-.24,25.42-.45,28.52-.72,57-2.15,85.56-2.69l49.07-.92c8.75-.16,27.28-2,19.83-16-3.55-6.65-14.79-5.13-21.15-5.16-11.31,0-22.63.24-33.94.54q-25.52.67-51,1.7c-3.3.13-3.32,5.28,0,5.14,28.29-1.13,56.65-2.37,85-2.24a56,56,0,0,1,7.26.11c5.59.77,15.67,6.43,5.32,10.08-3.91,1.38-9.92.64-14,.72l-43.72.82c-21.2.4-42.39,1.39-63.59,2-16,.49-32,1-48,1.13-6.77,0-13.85.4-20.56-.46-8.48-1.09-7.17-8.67-.4-9.67,13.87-2.05,29.15-.74,43.16-1.1,16.52-.43,33.05-.8,49.57-1.42C201.38,225.41,201.4,220.27,198.08,220.39Z"/><path class="cls-1" d="M223.24,239c8.13,21.53,16.24,43.17,22.95,65.19,1,3.16,5.93,1.81,5-1.37-6.71-22-14.81-43.66-22.95-65.19-1.16-3.07-6.13-1.74-5,1.37Z"/><path class="cls-1" d="M174.5,239.4a419.31,419.31,0,0,0-18,67.23c-.56,3.24,4.39,4.63,5,1.37a419.26,419.26,0,0,1,18-67.23c1.1-3.13-3.87-4.47-5-1.37Z"/><path class="cls-1" d="M235.19,262.63c-22.23.14-44.49.36-66.7,1.35-3.3.15-3.31,5.29,0,5.14,22.21-1,44.47-1.21,66.7-1.35,3.31,0,3.32-5.16,0-5.14Z"/><path class="cls-1" d="M167.22,276.55q34.75-1.77,69.5-3.29c3.3-.14,3.31-5.29,0-5.14q-34.76,1.49-69.5,3.29c-3.29.17-3.31,5.31,0,5.14Z"/><path class="cls-1" d="M120.51,223.54c-.41-1.66-1.34-5.75.26-6.92,1-.73,5-.16,6.28-.2l7.18-.2c1.33,0,4-.67,5.25-.31,2.67.74,2.69,5.53,2.8,8,.15,3.3,5.29,3.31,5.14,0-.2-4.45-.75-11.16-5.86-12.82A8.81,8.81,0,0,0,138,211c-.43,0,.82-.07-.31,0-1.35.09-2.71.07-4.06.11-4.59.12-13.56-1.5-17,2.29-2.64,2.95-2,8-1.15,11.51.79,3.21,5.75,1.85,5-1.37Z"/><path class="cls-1" d="M206.72,92.71c.15,5,.12,11.21-5.18,13.49-2.76,1.19-5.91.68-8.89.65-2.51,0-5.83.52-8.26-.09-6.17-1.54-6.08-8.34-6.07-13.5l-2.57,2.57,33.54-.56c3.31-.05,3.32-5.2,0-5.14l-33.54.56a2.61,2.61,0,0,0-2.57,2.57c0,6,.2,12.63,5.48,16.62,3.86,2.91,9.46,2.06,14,2.1s9.25.8,13.1-1.94c5.62-4,6.3-11,6.11-17.34C211.77,89.41,206.63,89.4,206.72,92.71Z"/><path class="cls-1" d="M159.85,143.75q-1.42,20.66-1.31,24.85,0,1.82.38,5.26t.38,5.18q.23,8.32-1.34,9.08a4,4,0,0,1-1.65.44l-.87,0-.87,0q-2.2-2.09-2.38-8.69a89.7,89.7,0,0,1,.37-9.64q.36-4.3.33-5.5a3.54,3.54,0,0,0-2.16-.58,8.22,8.22,0,0,0-1.34.19,7.94,7.94,0,0,1-1.34.2,46.66,46.66,0,0,1-4.76-.23,46.64,46.64,0,0,0-4.76-.23l-.71,0a6.27,6.27,0,0,1-.79.1q0,3.65,0,10.94t0,10.94q-1.12,2.73-3.34,2.79a3,3,0,0,1-2.28-.89,3.21,3.21,0,0,1-1-2.27,3.13,3.13,0,0,1,.28-1.43q0-6.66.07-20.78a197.74,197.74,0,0,1,2-20.83q1.82-3,15.45-3.35l-.08-.08a9.92,9.92,0,0,0,2.93-.24q.87.06,2.62.33a29.06,29.06,0,0,1,4.15,1A5.84,5.84,0,0,1,159.85,143.75Zm-6.46,1.68q-1.2-.6-6.35-.46a34.29,34.29,0,0,0-7.91.93,16.85,16.85,0,0,0-.77,3.75,24.13,24.13,0,0,1-.53,3.66,21.47,21.47,0,0,0-.29,3.89,75.39,75.39,0,0,0,8.09.26,16.85,16.85,0,0,1,2.22.1l.72.06.64.06,3.8-.1q0-1.51.23-6.11Q153.46,147.73,153.4,145.43Z"/><path class="cls-1" d="M215.29,176a14.42,14.42,0,0,1-4.51,6.15A28.24,28.24,0,0,1,204,186.4a19.92,19.92,0,0,1-7.64,2,24.43,24.43,0,0,1-3.34-.54,4.62,4.62,0,0,1-2.84-2.38q-1.4-13.52-2.28-45.85.77-.73,4.24-1.7,4.4-1.23,4.8-1.24t1.27-.12l1.27,0a25.14,25.14,0,0,1,4.77.58,14,14,0,0,1,4.48,1.34,10.77,10.77,0,0,1,1.71,1.58,14.18,14.18,0,0,1,3.66,9.18q.22,8.08-7.36,15.19l0,.79a11.15,11.15,0,0,0,3,1.11,21.16,21.16,0,0,1,3.12.87q2.61,2.71,2.66,4.61l.08,2.93A4.47,4.47,0,0,1,215.29,176Zm-7.17-27.4-.1-.87a9.67,9.67,0,0,0-5.95-2.93,56.57,56.57,0,0,0-6.9-.05,5.57,5.57,0,0,0-.93,3.83q.08,3.09,2.56,12.46l.4.07c.21,0,.32.1.32.15a.4.4,0,0,0,.47-.17.53.53,0,0,0,.07-.48Q209.35,159.05,208.12,148.62Zm.72,26.31q0-1.35-2-2.24a6.73,6.73,0,0,0-3.11-.79,17.23,17.23,0,0,0-1.9.29,35,35,0,0,0-4.65,1.08q-1.25.83-1.18,3.44,0,.79.54,5.38,2.86.24,2.15.26,2.3-.06,6.11-2.62Q208.89,177,208.83,174.93Z"/><path class="cls-1" d="M268.43,144.44c0,.42-.06.66-.22.72q-.15.4-1.49.75a9.85,9.85,0,0,1-2.05.37,4.2,4.2,0,0,1-1-.05,19.52,19.52,0,0,0-6.21-1.1,7.12,7.12,0,0,0-5.18,1.89,53.4,53.4,0,0,0-2.25,16.24q.3,10.93,5.27,15.79a56.35,56.35,0,0,0,8,1.21,24.18,24.18,0,0,0,4.5-.76h.24q1.11,0,1.17,2.27.11,3.88-3.46,4.06a8.86,8.86,0,0,1-3.87.66,25.47,25.47,0,0,1-6.27-.38,9.45,9.45,0,0,1-1.93-.82q-4.75-2.56-7.62-9a32.43,32.43,0,0,1-3-12.37q0,.55.32-2.71.12-4.21.93-12.47.74-4.78,2.35-7a5.9,5.9,0,0,1,1.16-1,15.2,15.2,0,0,1,8.81-2.62,26.85,26.85,0,0,1,9.07.94q1,.29,1.8,2.21A8.82,8.82,0,0,1,268.43,144.44Z"/></svg>