<svg id="Camada_1" data-name="Camada 1" xmlns="http://www.w3.org/2000/svg" viewBox="0 0 400 400"><defs><style>.cls-1{fill:#e24301;}</style></defs><title>icones_site</title><path class="cls-1" d="M134.46,197c-6,.69-7.61,5.81-7.68,11.12-.11,7.14-.43,16.81,8.37,18.28l-1.8-3.16c-1.31,5.1-1.66,11.31.59,16.18,4.83,10.49,17.69,7.38,26.24,4.13,3.06-1.17,1.73-6.14-1.37-5-7.06,2.69-18.7,6.46-21-3.82a22.75,22.75,0,0,1,.48-10.16,2.59,2.59,0,0,0-1.8-3.16c-5.44-.9-6.85-18.74-2.06-19.29,3.25-.37,3.29-5.52,0-5.14Z"/><path class="cls-1" d="M141.9,242.62c-8.86,8.45,6.65,19.85,12.65,24.2,10.36,7.5,21,10,29.45-1.2,2-2.64-2.46-5.2-4.44-2.6-6.07,8-13.59,5.43-20.65.6a71.6,71.6,0,0,1-8.13-6.5,19.81,19.81,0,0,1-3.56-3.59c-.57-.93-2.57-6.43-1.68-7.28,2.4-2.29-1.24-5.92-3.64-3.64Z"/><path class="cls-1" d="M172,270.5c1.58,12.53,18.86,15.74,26.59,6.7,8.84-10.32,5-28.89-7.29-34.64l-.61,4.7c12.59-4.11,11.45-21.93,10.21-32.08-.61-5-1.46-12.84-5.93-16.23-6.92-5.26-17,3.59-24.05-2.27-2.53-2.1-6.19,1.52-3.64,3.64,7.88,6.54,22.22-2.46,26.83,7,3.6,7.43,5.64,31.53-4.78,34.94-1.92.63-2.75,3.7-.61,4.7,6.62,3.09,9.7,10.06,9.31,17.14-.33,6.14-3.63,12.58-10.42,13.12-4.22.33-9.88-2.15-10.46-6.77-.41-3.24-5.56-3.28-5.14,0Z"/><path class="cls-1" d="M196,203.22c11.12-16.64,0-33.16,3.34-50.67.62-3.23-4.33-4.62-5-1.37-3.23,16.76,7.59,33.86-2.83,49.44-1.84,2.76,2.61,5.34,4.44,2.6Z"/><path class="cls-1" d="M162.41,189.85a16.62,16.62,0,0,1-.34,14.55c-1.56,2.92,2.88,5.52,4.44,2.6a21.81,21.81,0,0,0,.34-19.74c-1.44-3-5.88-.37-4.44,2.6Z"/><path class="cls-1" d="M166.61,149.46c2.36,6,8.33,9.51,14.66,9.81,11.57.56,20.5-6.13,22.19-17.7,1.26-8.66-3.06-16-10.44-20.3-6.94-4-20.67-.91-19.3,9.33l3.87-2.22c-13.75-6.66-37,12.51-28.55,26.83l3.52-3.52c-13.92-6.62-20.54,19.19-22.48,27.7-1.35,5.95-3.12,14.18.85,19.53,3.38,4.57,8.79,4.64,12.89,1,2.49-2.19-1.16-5.82-3.64-3.64-5.27,4.64-6.5-6.6-6.24-9.37a60.53,60.53,0,0,1,2.66-12c1.3-4.24,6.38-22.15,13.36-18.83,2.22,1.05,4.91-1.16,3.52-3.52-5.58-9.49,12.52-24.15,21.51-19.8,1.52.74,4.15-.11,3.87-2.22-1.19-8.85,12.52-5.32,16-1.21,4.84,5.69,5.14,15.22-.77,20.74s-19.42,5.93-22.54-2c-1.19-3-6.17-1.72-5,1.37Z"/><path class="cls-1" d="M144.47,188.39c-5.83,4.36-4.58,12.24-1.61,17.92,1.54,2.93,6,.34,4.44-2.6-1.38-2.63-2.64-5.89-1.49-8.85a8.1,8.1,0,0,1,.94-1.63c.19-.28,1.33-1.16.31-.4,2.62-2,.06-6.42-2.6-4.44Z"/><path class="cls-1" d="M169.67,225.34c7.31,9,5.91,20.73-1.71,28.94-2.25,2.42,1.38,6.07,3.64,3.64,9.68-10.41,10.88-25,1.71-36.21-2.09-2.57-5.71,1.09-3.64,3.64Z"/><path class="cls-1" d="M190,242.21l-13-1c-3.3-.26-3.28,4.88,0,5.14l13,1c3.3.26,3.28-4.88,0-5.14Z"/><path class="cls-1" d="M171,171.48a12,12,0,0,1-1.34-4.62c-.36-4.38,2.49-7,6.24-8.66,3-1.35.4-5.78-2.6-4.44-8.22,3.68-11.06,12.44-6.75,20.32,1.59,2.9,6,.31,4.44-2.6Z"/><path class="cls-1" d="M149,155.22c6.14,8.23,5.83,18.62,0,26.89-1.91,2.71,2.55,5.28,4.44,2.6,6.77-9.6,7.17-22.46,0-32.08-2-2.62-6.42-.06-4.44,2.6Z"/><path class="cls-1" d="M201.14,129.85c2-4.37,6.53-11,13-5.51,2.6,2.22,3.25,7.16,3.13,10.39h5.14c0-1.51-.36-4.58.53-5.61,2.6-3,6.45,3.68,6.67,6.64.09,1.25,1.11,2.75,2.57,2.57a25.19,25.19,0,0,1,8.49.21c9.3,2.16,8.92,10.28,4.61,17.36-4.56,7.49-23.78,27.95-30.42,12.84-1.33-3-5.76-.41-4.44,2.6,9,20.48,32.63-1.92,39.31-12.84,9.36-15.32-.93-27.35-17.54-25.31l2.57,2.57c-.4-5.34-4.13-14.9-11-14.3-6,.54-6.58,8.58-6.53,13.27,0,3.32,5,3.3,5.14,0,.63-17.18-18-24.35-25.71-7.47-1.36,3,3.07,5.61,4.44,2.6Z"/><path class="cls-1" d="M196.07,276.77c6.09,5.23,14.87,7.14,22.19,3.33,2.37-1.24,4.43-4.8,6.1-5.63.89-.44,2.8,0,3.85-.21,5.09-1.22,9.3-2.79,12.93-6.79,1.78-2,2.61-4.4,4.1-6.5,1.08-1.51-2.38.56.09-1.08,1.93-1.28,5.2-1.39,7.38-2.74,9.76-6.06,12-18.23,12.55-28.83.16-3.31-5-3.3-5.14,0-.45,9.49-3.62,26.3-16.29,26.57a2.67,2.67,0,0,0-2.48,1.89c-2.35,6.18-6.45,11.09-13.15,12.3-1.32.24-3.68-.24-4.94.31-6.3,2.74-7.48,9.12-16.29,7.33a16.78,16.78,0,0,1-7.27-3.58c-2.5-2.15-6.15,1.48-3.64,3.64Z"/><path class="cls-1" d="M248.53,153c4.54,3.78,9.44,8.93,11,14.74,2,7.83-5.51,14.6-12.57,16.27-3.22.76-1.86,5.72,1.37,5,7.93-1.88,16.1-8.88,16.72-17.4.64-8.68-6.59-17-12.85-22.21-2.53-2.1-6.18,1.52-3.64,3.64Z"/><path class="cls-1" d="M253.94,220.44c-.27,6.85,8.05,14,13.68,7.88,3.84-4.17,5.81-13.23,5.63-18.75-.15-4.61-2.44-7.26-6.52-9.19l1.18,2.9c2.86-9.57-.09-19.78-5.06-28-1.71-2.83-6.15-.25-4.44,2.6,4.26,7.06,7,15.86,4.54,24.08a2.59,2.59,0,0,0,1.18,2.9c5.88,2.78,3.78,8.26,2.27,13.54-.74,2.57-1.55,7.82-5.05,6.54-1.45-.53-2.31-3.1-2.26-4.47.13-3.31-5-3.3-5.14,0Z"/><path class="cls-1" d="M198.47,146.48c7.6,9.06,20.38,14.9,30,5.49,2.37-2.31-1.26-5.95-3.64-3.64-7.58,7.38-17.14,1.21-22.76-5.49-2.13-2.54-5.75,1.12-3.64,3.64Z"/><path class="cls-1" d="M198.92,224.63a25.92,25.92,0,0,0,15.4,1.31c11.06-2.88,12.29-15.1,11.17-24.7-.38-3.25-5.53-3.29-5.14,0,.91,7.78.87,18.79-9,20.06a23.1,23.1,0,0,1-11.05-1.62c-3.08-1.21-4.42,3.76-1.37,5Z"/><path class="cls-1" d="M216,205.52c4.33-2.72,9.48-2.63,13,1.31,2.21,2.47,5.84-1.17,3.64-3.64-5-5.6-13-6-19.23-2.12-2.8,1.76-.22,6.21,2.6,4.44Z"/><path class="cls-1" d="M215.1,239.12c8.27,4.94,18.5,7,28,6.52,5.42-.27,15.06-.3,19.3-4.52,2.35-2.34-1.29-6-3.64-3.64-3.22,3.21-14.1,3.13-18.64,3.12a45,45,0,0,1-22.48-5.92c-2.85-1.7-5.44,2.74-2.6,4.44Z"/><path class="cls-1" d="M224.63,269.39c-.48-.16.34.21-.13-.07a7,7,0,0,1-1.13-.76,5.53,5.53,0,0,1-1.69-4.41c0-1,.45-5.27,1.85-5.61.48-.12,1.37.73,1,.4,2.46,2.21,6.1-1.42,3.64-3.64a6.92,6.92,0,0,0-4.83-1.89c-3.89.17-5.74,4.31-6.42,7.59-1.12,5.38.71,11.47,6.35,13.34,3.15,1,4.5-3.92,1.37-5Z"/><path class="cls-1" d="M202.42,258.49c-.28.76.11-.26.36-.63a10.23,10.23,0,0,1,1.59-2c2.55-2.31,6-2.66,9.28-2.13s4.63-4.44,1.37-5c-7-1.13-14.86,1.06-17.56,8.31-1.16,3.11,3.81,4.45,5,1.37Z"/><path class="cls-1" d="M227.64,172.78c-1.64,6.37-1.14,15.94,6.94,17.22,3.24.51,4.63-4.44,1.37-5-4.95-.78-4.31-7.15-3.35-10.89.83-3.21-4.13-4.57-5-1.37Z"/><path class="cls-1" d="M200.21,192.83c4.4-2.11,12.32-4.37,15.68.45,1.88,2.7,6.34.13,4.44-2.6-5.26-7.55-15.46-5.78-22.72-2.29-3,1.43-.38,5.87,2.6,4.44Z"/><path class="cls-1" d="M244.25,218.89c6.1,4.47,14.23,4.81,19.92-.4,2.45-2.24-1.2-5.87-3.64-3.64-4,3.71-9.56,2.62-13.68-.4-2.67-2-5.24,2.5-2.6,4.44Z"/><path class="cls-1" d="M263.61,200.79a10.52,10.52,0,0,1-7.16,3.66c-3.32.18-8.84-1.07-7.39-5.27,1.08-3.14-3.89-4.48-5-1.37C242,204,246.77,208,252.4,209.2a15.45,15.45,0,0,0,14.84-4.78c2.13-2.51-1.49-6.16-3.64-3.64Z"/></svg>