<svg id="Camada_1" data-name="Camada 1" xmlns="http://www.w3.org/2000/svg" viewBox="0 0 400 400"><defs><style>.cls-1{fill:#e24212;}</style></defs><title>icones_site</title><path class="cls-1" d="M277.83,193.93a76.88,76.88,0,0,1-5.91,29.39,66.15,66.15,0,0,1-6.22,11.32c-2.27,3.29-6.66,6.52-8.38,10-1.45,3-.68,6,0,9.16,1.94,9.46,4.66,18.37,4.42,28.15l4.39-1.82c-6.92-6.82-13.56-21.47-24.35-23.23-4-.65-8.26,2.31-12.13,3.5a116.67,116.67,0,0,1-24,4.83c-28.2,2.39-58.19-11.22-73.38-35.4-16-25.48-11.63-58.25,7.07-81.09,18.94-23.13,49.53-33.73,78.6-26.34,32.72,8.33,59.25,37.07,60,71.49.07,3.3,5.21,3.32,5.14,0-1.36-63.79-79.46-100.27-130.67-64.23C128.77,146.27,113.93,175,117.57,204c3.57,28.45,24.81,51.18,51.12,61,16.13,6,33.16,6.83,50,3.45,7.58-1.53,18.9-8.42,25.89-4.29,7.74,4.57,11.67,13.46,17.92,19.62a2.6,2.6,0,0,0,4.39-1.82c.2-8-1.28-15.6-3.12-23.32-.58-2.44-3-8.18-2.16-10.82s5.13-5.87,6.89-8.23c9.9-13.29,14.21-29.27,14.53-45.68C283,190.62,277.9,190.62,277.83,193.93Z"/><path class="cls-1" d="M204.42,190.14a167.3,167.3,0,0,1-.08,17.42q-.38,8.1-.41,7.72a20.48,20.48,0,0,0,.32,2.25,20.4,20.4,0,0,1,.32,2.25q.48,8-7.53,8.52l-.74,0-.46-.41a2.39,2.39,0,0,0-.58-.41,13.87,13.87,0,0,1-1.43-5.34,31,31,0,0,1,.22-4.68,31.15,31.15,0,0,0,.22-4.56l-.46-7.67a233.2,233.2,0,0,1,.78-32.61q.67-1.18,3.11-1.7,2-.37,3.8-.61,2.35,2,2.76,9,.13,2.14.1,5.86T204.42,190.14Z"/><path class="cls-1" d="M215.84,164.7a109.11,109.11,0,0,1-30.6,6.19c-6.58.36-6.63,10.65,0,10.29a118.94,118.94,0,0,0,33.34-6.56c6.2-2.19,3.53-12.13-2.73-9.92Z"/><path class="cls-1" d="M185.31,233.35q13.65-.1,27.29.3c6.62.19,6.62-10.09,0-10.29q-13.64-.39-27.29-.3c-6.62,0-6.63,10.33,0,10.29Z"/><path class="cls-1" d="M136.81,226.65a43.59,43.59,0,0,0,19.28,16.89c3,1.34,5.62-3.09,2.6-4.44a38.91,38.91,0,0,1-17.44-15c-1.75-2.8-6.2-.22-4.44,2.6Z"/><path class="cls-1" d="M239.14,146.69a42.68,42.68,0,0,1,15.06,21.18c1,3.14,6,1.79,5-1.37a48.56,48.56,0,0,0-17.42-24.25c-2.65-2-5.22,2.48-2.6,4.44Z"/></svg>