<svg id="Camada_1" data-name="Camada 1" xmlns="http://www.w3.org/2000/svg" viewBox="0 0 400 400"><defs><style>.cls-1{fill:#e24212;}</style></defs><title>icones_site</title><path class="cls-1" d="M270.15,151.43c-23.68-.12-47.38,3.08-70.93,5.29-15.91,1.49-30.85,2.11-29.67,21.62.37,6.05-.19,14.17,5.18,18.25,6.66,5.06,19,4.47,26.73,4.26,23.9-.66,48.13-5,71.42-10.23,3.23-.72,1.86-5.68-1.37-5a462.92,462.92,0,0,1-52.24,8.67c-8.5.89-17.17,1.82-25.73,1.34-5.8-.33-14.75-.12-17.82-6.45-1.25-2.59-1.52-9.88-1.15-12.63,1.74-12.94,12-13.54,22.67-14.54l23.66-2.22c16.38-1.54,32.76-3.34,49.23-3.25,3.31,0,3.31-5.13,0-5.14Z"/><path class="cls-1" d="M260.78,155.32c1.83,5.23.06,11-.1,16.38a165.5,165.5,0,0,0,.65,16.86c.24,3.28,5.38,3.31,5.14,0a143.7,143.7,0,0,1-.54-19.44c.33-5.21,1.57-10.1-.2-15.16-1.09-3.1-6.06-1.77-5,1.37Z"/><path class="cls-1" d="M178.08,160.91,131.25,134l-1.3,4.79c24.52-2.54,49-5.73,73.73-5.48,5,0,9.92-.59,14.92-.64,5.86-.06,11,2.64,16.43,4.76,12,4.66,24.65,8.67,33.56,18.4,2.24,2.45,5.87-1.2,3.64-3.64-7.06-7.7-16.11-11.88-25.66-15.72-9.33-3.76-19.91-10-30.12-9.13-14.45,1.16-29,.78-43.53,2-14.34,1.19-28.65,2.84-43,4.32-2.39.25-3.68,3.42-1.3,4.79l46.83,26.92c2.87,1.65,5.47-2.79,2.6-4.44Z"/><path class="cls-1" d="M184.05,195.12a173,173,0,0,1-41.47-20.49c-5.07-3.49-13.62-9.2-16.56-14.9l-2.57-10.43a50,50,0,0,1,3.66-4.81,46.28,46.28,0,0,0,4.18-6.11c1.58-2.91-2.86-5.51-4.44-2.6-2.94,5.41-9.64,10.26-9.56,17.05.09,7.54,8.12,14.2,13.16,18.71,14.52,13,33.87,22.29,52.23,28.53,3.14,1.07,4.49-3.9,1.37-5Z"/><path class="cls-1" d="M143.7,144.72a32.88,32.88,0,0,0-10.34,28.45c.42,3.24,5.57,3.28,5.14,0a28.06,28.06,0,0,1,8.84-24.81c2.43-2.26-1.22-5.89-3.64-3.64Z"/><path class="cls-1" d="M158,154.08c-2.35,5.49-4.58,11.23-5.57,17.15-.92,5.49,1.81,9.91,2,15.28.09,3.3,5.24,3.32,5.14,0-.13-4.78-2.75-9.09-2.14-13.92.68-5.41,2.93-11,5.05-15.92,1.29-3-3.14-5.63-4.44-2.6Z"/><path class="cls-1" d="M262.46,160.68c-12.7,3.62-25.8,1.67-38.67,3.94-11.84,2.09-23.66,1.22-35.53,3.21-3.26.55-1.88,5.5,1.37,5,7.11-1.2,13.71-1,20.84-1,5.59,0,10.7-1.56,16.2-2.37,12.44-1.84,24.94-.29,37.17-3.77,3.18-.91,1.83-5.87-1.37-5Z"/><path class="cls-1" d="M262.26,174.08c-12.82,2-25.82,0-38.7,1.58-11.47,1.41-22.69,3.73-34.31,3.16-3.31-.16-3.3,5,0,5.14,12.89.63,25.17-2.37,37.93-3.57,12.17-1.14,24.32.52,36.45-1.36,3.26-.51,1.88-5.46-1.37-5Z"/><path class="cls-1" d="M262.34,182.95c-10.49.38-20.4-.73-30.93.67-11.63,1.55-23.25,3.17-34.87,4.76-3.26.45-1.87,5.4,1.37,5,11.31-1.55,22.62-3.13,33.94-4.63,10.38-1.37,20.14-.24,30.49-.62,3.3-.12,3.32-5.26,0-5.14Z"/><path class="cls-1" d="M281.43,196c-26.21,2.39-52.3,6.83-78.52,8.83-12.19.93-43.38-2.66-37.69,18.8,5.62,21.21,25.12,17.82,43.14,17.54,26.15-.4,52.21-2.13,77.9-7.25,3.24-.65,1.87-5.6-1.37-5a374.77,374.77,0,0,1-57.1,6.52c-13.24.57-54.08,7-57-11.51-2.67-16.89,18.58-13.27,28.46-13.78,8.16-.42,16.23-1.66,24.32-2.7q28.87-3.73,57.86-6.35c3.27-.3,3.3-5.44,0-5.14Z"/><path class="cls-1" d="M173.77,208.56a183.58,183.58,0,0,1-41.15-26.14c-2.52-2.12-6.17,1.5-3.64,3.64A188.55,188.55,0,0,0,171.17,213c3,1.38,5.6-3,2.6-4.44Z"/><path class="cls-1" d="M177.52,234a164.3,164.3,0,0,1-34.27-20.72c-4.07-3.24-9.69-7-12.7-11.29-3.52-5-4-9.31.46-14.4,3-3.42,6-5.88,10.52-7.15,3.18-.9,1.83-5.87-1.37-5-10.79,3.06-24.92,17-15.64,27.73,13.2,15.29,32.25,27,50.4,35.24,3,1.36,5.61-3.07,2.6-4.44Z"/><path class="cls-1" d="M281.8,194.34a157.05,157.05,0,0,1-15.1-5.7c-3-1.32-5.62,3.11-2.6,4.44a169.94,169.94,0,0,0,16.33,6.22c3.16,1,4.51-3.95,1.37-5Z"/><path class="cls-1" d="M276.13,201.61c.37,5.74,1.08,11.47.22,17.19-.69,4.56-1.49,8.64-.56,13.24.66,3.24,5.62,1.87,5-1.37-1.05-5.18.87-10.07,1.17-15.2.28-4.59-.35-9.28-.65-13.86-.21-3.29-5.36-3.31-5.14,0Z"/><path class="cls-1" d="M278.4,209q-31.41,1.52-62.73,4.34c-3.27.29-3.3,5.44,0,5.14q31.32-2.82,62.73-4.34c3.29-.16,3.31-5.3,0-5.14Z"/><path class="cls-1" d="M277.68,221.06a375.21,375.21,0,0,0-65.56,2.85c-3.24.41-3.28,5.56,0,5.14a375.24,375.24,0,0,1,65.56-2.85c3.31.17,3.3-5,0-5.14Z"/><path class="cls-1" d="M280.63,240.34a59.48,59.48,0,0,1-1.46,18.48c-.77,3.22,4.19,4.59,5,1.37a64.06,64.06,0,0,0,1.64-19.85c-.24-3.28-5.39-3.31-5.14,0Z"/><path class="cls-1" d="M288.77,257.24c-40.43,9.18-83.27,9-124.57,10.37-3.3.11-3.32,5.26,0,5.14,41.77-1.42,85-1.25,125.93-10.55,3.23-.73,1.86-5.69-1.37-5Z"/><path class="cls-1" d="M286.72,237.18c-31.43,6.21-62.66,3-94.24,6.18-9.24.95-26.85-1.57-33.58,6.47-5.75,6.87-3.68,17.23,3.3,22.1,2.72,1.9,5.29-2.56,2.6-4.44-3.81-2.66-4.73-8.19-3-12.19,1.82-4.2,5.92-4.49,9.91-5.15,6.09-1,12.39-.82,18.55-1.42a261.29,261.29,0,0,1,28.14-1.63c23.56.24,46.51-.39,69.69-5,3.24-.64,1.87-5.6-1.37-5Z"/><path class="cls-1" d="M164.47,267.27C152.33,260,139,254.43,127.64,246c-5.06-3.74-14.06-10.3-14.8-17-1.09-9.85,13.57-14.72,21.19-16,3.26-.54,1.88-5.49-1.37-5-13,2.15-31.52,11.8-23.05,27.25,9.92,18.08,35.63,26.5,52.27,36.43,2.85,1.7,5.44-2.75,2.6-4.44Z"/><path class="cls-1" d="M167,245.63c-16.92-9-32.44-19.86-48.11-30.82-2.72-1.9-5.29,2.55-2.6,4.44,15.66,11,31.18,21.85,48.11,30.82,2.92,1.55,5.52-2.89,2.6-4.44Z"/><path class="cls-1" d="M285.28,237.21a24.66,24.66,0,0,0-7.3-5.3,2.64,2.64,0,0,0-3.52.92,2.59,2.59,0,0,0,.92,3.52,20.71,20.71,0,0,1,6.26,4.49c2.29,2.4,5.92-1.24,3.64-3.64Z"/><path class="cls-1" d="M280.73,248,240.07,251c-13.12.94-26.41,2.67-39.54,1.31-3.29-.34-3.26,4.8,0,5.14,13.13,1.36,26.43-.37,39.54-1.31l40.66-2.92c3.28-.24,3.31-5.38,0-5.14Z"/><path class="cls-1" d="M263.48,183.76l7.65,5.24c2.74,1.87,5.31-2.58,2.6-4.44l-7.65-5.24c-2.74-1.87-5.31,2.58-2.6,4.44Z"/><path class="cls-1" d="M281.49,255.85a32.51,32.51,0,0,0,7.15,5.11c2.93,1.53,5.53-2.9,2.6-4.44a27.44,27.44,0,0,1-6.11-4.31c-2.41-2.26-6.06,1.37-3.64,3.64Z"/><path class="cls-1" d="M276.86,226.55a29.9,29.9,0,0,0,7.77,6.47c2.87,1.67,5.46-2.77,2.6-4.44a25.71,25.71,0,0,1-6.73-5.67,2.59,2.59,0,0,0-3.64,0,2.63,2.63,0,0,0,0,3.64Z"/></svg>