<svg id="Camada_1" data-name="Camada 1" xmlns="http://www.w3.org/2000/svg" viewBox="0 0 400 400"><defs><style>.cls-1{fill:#e24212;}</style></defs><title>icones_site</title><path class="cls-1" d="M216.3,107.1l-59.67,4.13c-12.79.89-30.47.07-33.39,16.54-1.85,10.43.81,23.07,1.43,33.54q1.3,22,2.62,43.92c1.1,18.08,2.34,36.13,3.22,54.22.72,14.85-.94,32.1,19,33.3,12.49.76,25.88-1.71,38.37-2.47Q210,289,232.21,287.84c7.28-.38,16.68-1.35,23.09-1.2,5.14.11,11.49.46,16.28-4.28,8.15-8.07,5.57-21.55,5-31.8q-1.27-21.63-2.5-43.25-1.29-22.5-2.56-45c-.31-5.4.36-8.52-3.32-12.24-15.14-15.32-33.56-28.31-50-42.21-2.51-2.12-6.17,1.5-3.64,3.64L255.34,146c2.8,2.36,5.51,5,8.48,7.15,2.47,1.78,2.48,2.82,2.06,1.12,1.69,6.88.87,15.45,1.27,22.49q2.2,38.75,4.46,77.5c.62,10.46,2.36,27.15-12.06,27.68-3.7.14-7.39-.2-11.16,0C223.7,283.1,199,284.36,174.34,286c-9.78.65-28.83,5.54-35.68-3.17-3.12-4-2.37-9.88-2.6-14.67-1.9-40-4.67-80-7-120-.67-11.27-4.09-26.74,10.31-30.3,5.51-1.36,11.67-1.07,17.29-1.46l59.67-4.13C219.58,112,219.61,106.87,216.3,107.1Z"/><path class="cls-1" d="M268,150.76c-11,.49-22,1.24-33,1.48-2.3,0-4.65.4-6.92-.16-8.56-2.1-7.69-11.48-8.16-18.49-.51-7.7-1.28-15.47-1.38-23.19,0-3.31-5.18-3.32-5.14,0,.13,10.19,1,20.58,1.9,30.72.84,9,4,15.2,13.74,16.25,12.6,1.37,26.28-.9,38.92-1.47,3.3-.15,3.31-5.29,0-5.14Z"/><path class="cls-1" d="M143.7,150.89c19.55-4.25,39.1-8.2,59.08-4.43,3.23.61,4.62-4.35,1.37-5-20.93-3.94-41.31,0-61.82,4.43-3.23.7-1.86,5.66,1.37,5Z"/><path class="cls-1" d="M145.87,164.92a530.78,530.78,0,0,0,56.06-2.38c3.27-.31,3.3-5.46,0-5.14a530.78,530.78,0,0,1-56.06,2.38c-3.31,0-3.31,5.11,0,5.14Z"/><path class="cls-1" d="M201.9,127.06a530.78,530.78,0,0,0-56,3.51c-3.25.38-3.29,5.52,0,5.14a530.78,530.78,0,0,1,56-3.51c3.31,0,3.32-5.18,0-5.14Z"/><polygon class="cls-1" points="155.65 203.86 158.18 255.73 173.04 255.09 169.56 202.28 155.65 203.86"/><path class="cls-1" d="M153.08,203.86l2.53,51.86a2.61,2.61,0,0,0,2.57,2.57l14.86-.63a2.6,2.6,0,0,0,2.57-2.57l-3.48-52.81c-.08-1.27-1.12-2.74-2.57-2.57l-13.91,1.58c-3.25.37-3.29,5.52,0,5.14l13.91-1.58L167,202.28l3.48,52.81,2.57-2.57-14.86.63,2.57,2.57-2.53-51.86C158.06,200.57,152.92,200.55,153.08,203.86Z"/><polygon class="cls-1" points="181.9 220.31 184.43 254.15 197.71 252.88 194.55 219.36 181.9 220.31"/><path class="cls-1" d="M179.33,220.31l2.53,33.84a2.6,2.6,0,0,0,2.57,2.57l13.28-1.26c1.28-.12,2.71-1.08,2.57-2.57l-3.16-33.52a2.61,2.61,0,0,0-2.57-2.57l-12.65.95c-3.28.25-3.31,5.39,0,5.14l12.65-.95L192,219.36l3.16,33.52,2.57-2.57-13.28,1.26,2.57,2.57-2.53-33.84C184.22,217,179.08,217,179.33,220.31Z"/><polygon class="cls-1" points="205.62 191.53 208.78 252.25 223.64 251.62 219.53 190.58 205.62 191.53"/><path class="cls-1" d="M203,191.53l3.16,60.72a2.61,2.61,0,0,0,2.57,2.57l14.86-.63a2.6,2.6,0,0,0,2.57-2.57l-4.11-61a2.61,2.61,0,0,0-2.57-2.57l-13.91.95c-3.28.22-3.31,5.37,0,5.14l13.91-.95L217,190.58l4.11,61,2.57-2.57-14.86.63,2.57,2.57-3.16-60.72C208,188.24,202.87,188.22,203,191.53Z"/><polygon class="cls-1" points="231.23 226.32 233.44 251.93 245.46 251.93 243.25 225.37 231.23 226.32"/><path class="cls-1" d="M228.66,226.32l2.21,25.61a2.63,2.63,0,0,0,2.57,2.57h12a2.59,2.59,0,0,0,2.57-2.57l-2.21-26.56a2.61,2.61,0,0,0-2.57-2.57l-12,.95c-3.28.26-3.31,5.4,0,5.14l12-.95-2.57-2.57,2.21,26.56,2.57-2.57h-12l2.57,2.57-2.21-25.61C233.52,223,228.37,223,228.66,226.32Z"/></svg>