<svg id="Camada_1" data-name="Camada 1" xmlns="http://www.w3.org/2000/svg" viewBox="0 0 400 400"><defs><style>.cls-1{fill:#e24212;}</style></defs><title>icones_site</title><path class="cls-1" d="M228,110.05l-59.72-3.27c-13.4-.73-31.68-3.42-35.36,14.23-2,9.82-1.53,20.8-2.18,30.77q-1.43,22-2.83,44c-1.17,18.42-2.18,36.84-3.56,55.24-1.15,15.27-4.74,32.71,16.9,35.36,27.28,3.33,55.43,3.23,82.87,5.22,6.11.44,16.5.9,20.78,1.53,6.13.9,11.55,1.74,16.87-2.48,8.91-7.08,8-20.85,8.63-31.05q1.45-22.22,2.94-44.44,1.46-21.88,2.93-43.75c.39-5.79,1.39-8.5-2.32-12.81-14.09-16.4-29.45-31.85-44.13-47.73-2.25-2.44-5.88,1.21-3.64,3.64l36.29,39.25c2.5,2.7,4.89,5.59,7.53,8.14a13.8,13.8,0,0,1,2,2.15c1,1.66-.42-2.51-.31-.71.43,7-1,14.52-1.45,21.48Q267.55,224,265,263.2c-.7,10.84-1.31,27.1-15.94,25.61-3.4-.35-6.7-1-10.17-1.31-24.87-1.86-49.74-3.67-74.64-5.1-9.84-.57-29.85,2.06-35-8.07-2.19-4.27-.74-10.06-.39-14.66,3.06-40,5.25-80,7.84-120,.74-11.42-.57-27.21,14.56-28.55,5.58-.49,11.5.48,17.06.78L228,115.19C231.26,115.37,231.25,110.23,228,110.05Z"/><path class="cls-1" d="M273.9,159.76c-10.85-.86-21.74-1.54-32.57-2.58a29.71,29.71,0,0,1-6.18-.86c-8.32-2.62-6.94-11.3-6.55-18.32.46-8.21.67-16.53,1.59-24.71.37-3.28-4.78-3.26-5.14,0-1.21,10.85-2.49,22.73-2.06,33.6.34,8.58,5.27,13.62,13.71,15,12.18,2,24.91,2,37.21,3,3.3.26,3.28-4.88,0-5.14Z"/><path class="cls-1" d="M179,203l24.72-22h-3.64l21.57,25.61c2.13,2.53,5.76-1.12,3.64-3.64l-21.57-25.61a2.61,2.61,0,0,0-3.64,0l-24.72,22c-2.48,2.21,1.17,5.83,3.64,3.64Z"/><path class="cls-1" d="M200.46,231.26l4-52.13c.26-3.3-4.89-3.28-5.14,0l-4,52.13c-.26,3.3,4.89,3.28,5.14,0Z"/><path class="cls-1" d="M183.72,243.4a175.05,175.05,0,0,0,27.78,2.69c3.31.05,3.31-5.09,0-5.14a166.37,166.37,0,0,1-26.42-2.5c-3.24-.57-4.63,4.38-1.37,5Z"/></svg>